<svg width="1196" height="313" viewBox="0 0 1196 313" fill="none" xmlns="http://www.w3.org/2000/svg">
<circle cx="153" cy="160" r="153" fill="url(#paint0_radial_0_1)"/>
<circle cx="153" cy="153" r="153" fill="url(#paint1_radial_0_1)"/>
<circle cx="153" cy="153" r="48" fill="url(#paint2_linear_0_1)"/>
<circle cx="151.5" cy="152.5" r="9.5" fill="url(#paint3_linear_0_1)"/>
<path d="M350.908 131.588C353.129 130.151 356.461 128.648 360.904 127.08C365.477 125.512 370.704 124.728 376.584 124.728C383.901 124.728 390.369 126.035 395.988 128.648C401.737 131.261 406.572 134.92 410.492 139.624C414.412 144.328 417.352 149.947 419.312 156.48C421.403 163.013 422.448 170.2 422.448 178.04C422.448 186.272 421.207 193.72 418.724 200.384C416.372 206.917 412.975 212.471 408.532 217.044C404.089 221.617 398.732 225.145 392.46 227.628C386.188 230.111 379.132 231.352 371.292 231.352C362.799 231.352 355.285 230.764 348.752 229.588C342.219 228.412 336.861 227.236 332.68 226.06V80.04L350.908 76.904V131.588ZM350.908 213.124C352.737 213.647 355.285 214.169 358.552 214.692C361.949 215.084 366.131 215.28 371.096 215.28C380.896 215.28 388.736 212.079 394.616 205.676C400.496 199.143 403.436 189.931 403.436 178.04C403.436 172.813 402.913 167.913 401.868 163.34C400.823 158.767 399.124 154.847 396.772 151.58C394.42 148.183 391.349 145.569 387.56 143.74C383.901 141.78 379.459 140.8 374.232 140.8C369.267 140.8 364.693 141.649 360.512 143.348C356.331 145.047 353.129 146.811 350.908 148.64V213.124ZM448.098 130.02C452.279 128.975 457.833 127.864 464.758 126.688C471.683 125.512 479.654 124.924 488.67 124.924C496.771 124.924 503.501 126.1 508.858 128.452C514.215 130.673 518.462 133.875 521.598 138.056C524.865 142.107 527.151 147.007 528.458 152.756C529.765 158.505 530.418 164.843 530.418 171.768V229H512.19V175.688C512.19 169.416 511.733 164.059 510.818 159.616C510.034 155.173 508.662 151.58 506.702 148.836C504.742 146.092 502.129 144.132 498.862 142.956C495.595 141.649 491.545 140.996 486.71 140.996C484.75 140.996 482.725 141.061 480.634 141.192C478.543 141.323 476.518 141.519 474.558 141.78C472.729 141.911 471.03 142.107 469.462 142.368C468.025 142.629 466.979 142.825 466.326 142.956V229H448.098V130.02ZM595.141 215.868C599.453 215.868 603.242 215.803 606.509 215.672C609.906 215.411 612.716 215.019 614.937 214.496V184.116C613.63 183.463 611.474 182.94 608.469 182.548C605.594 182.025 602.066 181.764 597.885 181.764C595.141 181.764 592.201 181.96 589.065 182.352C586.06 182.744 583.25 183.593 580.637 184.9C578.154 186.076 576.064 187.775 574.365 189.996C572.666 192.087 571.817 194.896 571.817 198.424C571.817 204.957 573.908 209.531 578.089 212.144C582.27 214.627 587.954 215.868 595.141 215.868ZM593.573 124.532C600.89 124.532 607.032 125.512 611.997 127.472C617.093 129.301 621.144 131.98 624.149 135.508C627.285 138.905 629.506 143.021 630.813 147.856C632.12 152.56 632.773 157.787 632.773 163.536V227.236C631.205 227.497 628.984 227.889 626.109 228.412C623.365 228.804 620.229 229.196 616.701 229.588C613.173 229.98 609.318 230.307 605.137 230.568C601.086 230.96 597.036 231.156 592.985 231.156C587.236 231.156 581.944 230.568 577.109 229.392C572.274 228.216 568.093 226.387 564.565 223.904C561.037 221.291 558.293 217.893 556.333 213.712C554.373 209.531 553.393 204.5 553.393 198.62C553.393 193.001 554.504 188.167 556.725 184.116C559.077 180.065 562.213 176.799 566.133 174.316C570.053 171.833 574.626 170.004 579.853 168.828C585.08 167.652 590.568 167.064 596.317 167.064C598.146 167.064 600.041 167.195 602.001 167.456C603.961 167.587 605.79 167.848 607.489 168.24C609.318 168.501 610.886 168.763 612.193 169.024C613.5 169.285 614.414 169.481 614.937 169.612V164.516C614.937 161.511 614.61 158.571 613.957 155.696C613.304 152.691 612.128 150.077 610.429 147.856C608.73 145.504 606.378 143.675 603.373 142.368C600.498 140.931 596.709 140.212 592.005 140.212C585.994 140.212 580.702 140.669 576.129 141.584C571.686 142.368 568.354 143.217 566.133 144.132L563.977 129.04C566.329 127.995 570.249 127.015 575.737 126.1C581.225 125.055 587.17 124.532 593.573 124.532ZM733.803 178.236C733.803 166.345 730.863 157.199 724.983 150.796C719.103 144.393 711.263 141.192 701.463 141.192C695.975 141.192 691.663 141.388 688.527 141.78C685.522 142.172 683.105 142.629 681.275 143.152V207.44C683.497 209.269 686.698 211.033 690.879 212.732C695.061 214.431 699.634 215.28 704.599 215.28C709.826 215.28 714.269 214.365 717.927 212.536C721.717 210.576 724.787 207.963 727.139 204.696C729.491 201.299 731.19 197.379 732.235 192.936C733.281 188.363 733.803 183.463 733.803 178.236ZM752.815 178.236C752.815 185.945 751.77 193.067 749.679 199.6C747.719 206.133 744.779 211.752 740.859 216.456C736.939 221.16 732.105 224.819 726.355 227.432C720.737 230.045 714.269 231.352 706.951 231.352C701.071 231.352 695.845 230.568 691.271 229C686.829 227.432 683.497 225.929 681.275 224.492V265.26H663.047V130.216C667.359 129.171 672.717 128.06 679.119 126.884C685.653 125.577 693.166 124.924 701.659 124.924C709.499 124.924 716.555 126.165 722.827 128.648C729.099 131.131 734.457 134.659 738.899 139.232C743.342 143.805 746.739 149.424 749.091 156.088C751.574 162.621 752.815 170.004 752.815 178.236ZM770.625 181.96C773.108 176.211 776.505 169.547 780.817 161.968C785.129 154.259 789.964 146.353 795.321 138.252C800.809 130.151 806.624 122.18 812.765 114.34C819.037 106.5 825.309 99.444 831.581 93.172H849.025V179.412H865.097V194.308H849.025V229H831.385V194.308H770.625V181.96ZM831.385 114.732C827.465 118.913 823.48 123.617 819.429 128.844C815.509 133.94 811.654 139.297 807.865 144.916C804.076 150.535 800.482 156.284 797.085 162.164C793.818 168.044 790.878 173.793 788.265 179.412H831.385V114.732ZM883.218 160.988C883.218 138.252 887.203 120.743 895.174 108.46C903.275 96.1773 914.447 90.036 928.69 90.036C942.933 90.036 954.039 96.1773 962.01 108.46C970.111 120.743 974.162 138.252 974.162 160.988C974.162 183.724 970.111 201.233 962.01 213.516C954.039 225.799 942.933 231.94 928.69 231.94C914.447 231.94 903.275 225.799 895.174 213.516C887.203 201.233 883.218 183.724 883.218 160.988ZM954.954 160.988C954.954 153.54 954.497 146.484 953.582 139.82C952.798 133.156 951.361 127.341 949.27 122.376C947.31 117.411 944.631 113.491 941.234 110.616C937.837 107.611 933.655 106.108 928.69 106.108C923.725 106.108 919.543 107.611 916.146 110.616C912.749 113.491 910.005 117.411 907.914 122.376C905.954 127.341 904.517 133.156 903.602 139.82C902.818 146.484 902.426 153.54 902.426 160.988C902.426 168.436 902.818 175.492 903.602 182.156C904.517 188.82 905.954 194.635 907.914 199.6C910.005 204.565 912.749 208.551 916.146 211.556C919.543 214.431 923.725 215.868 928.69 215.868C933.655 215.868 937.837 214.431 941.234 211.556C944.631 208.551 947.31 204.565 949.27 199.6C951.361 194.635 952.798 188.82 953.582 182.156C954.497 175.492 954.954 168.436 954.954 160.988ZM993.851 160.988C993.851 138.252 997.836 120.743 1005.81 108.46C1013.91 96.1773 1025.08 90.036 1039.32 90.036C1053.57 90.036 1064.67 96.1773 1072.64 108.46C1080.74 120.743 1084.79 138.252 1084.79 160.988C1084.79 183.724 1080.74 201.233 1072.64 213.516C1064.67 225.799 1053.57 231.94 1039.32 231.94C1025.08 231.94 1013.91 225.799 1005.81 213.516C997.836 201.233 993.851 183.724 993.851 160.988ZM1065.59 160.988C1065.59 153.54 1065.13 146.484 1064.21 139.82C1063.43 133.156 1061.99 127.341 1059.9 122.376C1057.94 117.411 1055.26 113.491 1051.87 110.616C1048.47 107.611 1044.29 106.108 1039.32 106.108C1034.36 106.108 1030.18 107.611 1026.78 110.616C1023.38 113.491 1020.64 117.411 1018.55 122.376C1016.59 127.341 1015.15 133.156 1014.23 139.82C1013.45 146.484 1013.06 153.54 1013.06 160.988C1013.06 168.436 1013.45 175.492 1014.23 182.156C1015.15 188.82 1016.59 194.635 1018.55 199.6C1020.64 204.565 1023.38 208.551 1026.78 211.556C1030.18 214.431 1034.36 215.868 1039.32 215.868C1044.29 215.868 1048.47 214.431 1051.87 211.556C1055.26 208.551 1057.94 204.565 1059.9 199.6C1061.99 194.635 1063.43 188.82 1064.21 182.156C1065.13 175.492 1065.59 168.436 1065.59 160.988ZM1104.48 160.988C1104.48 138.252 1108.47 120.743 1116.44 108.46C1124.54 96.1773 1135.71 90.036 1149.96 90.036C1164.2 90.036 1175.3 96.1773 1183.28 108.46C1191.38 120.743 1195.43 138.252 1195.43 160.988C1195.43 183.724 1191.38 201.233 1183.28 213.516C1175.3 225.799 1164.2 231.94 1149.96 231.94C1135.71 231.94 1124.54 225.799 1116.44 213.516C1108.47 201.233 1104.48 183.724 1104.48 160.988ZM1176.22 160.988C1176.22 153.54 1175.76 146.484 1174.85 139.82C1174.06 133.156 1172.63 127.341 1170.54 122.376C1168.58 117.411 1165.9 113.491 1162.5 110.616C1159.1 107.611 1154.92 106.108 1149.96 106.108C1144.99 106.108 1140.81 107.611 1137.41 110.616C1134.01 113.491 1131.27 117.411 1129.18 122.376C1127.22 127.341 1125.78 133.156 1124.87 139.82C1124.08 146.484 1123.69 153.54 1123.69 160.988C1123.69 168.436 1124.08 175.492 1124.87 182.156C1125.78 188.82 1127.22 194.635 1129.18 199.6C1131.27 204.565 1134.01 208.551 1137.41 211.556C1140.81 214.431 1144.99 215.868 1149.96 215.868C1154.92 215.868 1159.1 214.431 1162.5 211.556C1165.9 208.551 1168.58 204.565 1170.54 199.6C1172.63 194.635 1174.06 188.82 1174.85 182.156C1175.76 175.492 1176.22 168.436 1176.22 160.988Z" fill="url(#paint4_linear_0_1)"/>
<defs>
<radialGradient id="paint0_radial_0_1" cx="0" cy="0" r="1" gradientUnits="userSpaceOnUse" gradientTransform="translate(219.937 87.6836) rotate(132.226) scale(864.399)">
<stop stop-color="#1B1725"/>
<stop offset="0.55"/>
</radialGradient>
<radialGradient id="paint1_radial_0_1" cx="0" cy="0" r="1" gradientUnits="userSpaceOnUse" gradientTransform="translate(219.937 80.6836) rotate(132.226) scale(864.399)">
<stop stop-color="#241F31"/>
<stop offset="0.55"/>
</radialGradient>
<linearGradient id="paint2_linear_0_1" x1="201" y1="111" x2="-8.24999" y2="331.125" gradientUnits="userSpaceOnUse">
<stop stop-color="#DC8ADD"/>
<stop offset="0.55" stop-color="#613583"/>
</linearGradient>
<linearGradient id="paint3_linear_0_1" x1="132.5" y1="168.234" x2="173.172" y2="145.078" gradientUnits="userSpaceOnUse">
<stop stop-color="#DC8ADD"/>
<stop offset="1" stop-color="#764A77"/>
</linearGradient>
<linearGradient id="paint4_linear_0_1" x1="785.5" y1="-86.5" x2="788" y2="417.5" gradientUnits="userSpaceOnUse">
<stop offset="0.133403" stop-color="white"/>
<stop offset="1" stop-color="#DC8ADD"/>
</linearGradient>
</defs>
</svg>
